<svg width="248" height="390" viewBox="0 0 248 390" fill="none" xmlns="http://www.w3.org/2000/svg">
<g clip-path="url(#clip0_202_4486)">
<path d="M256 -5H-6V396H256V-5Z" fill="#F5F5F5"/>
<path opacity="0.7" d="M146.38 351.88C140.75 354.45 136.55 362.62 139.95 370.23C143.48 378.12 153.61 381.92 159.79 378.72C166.25 375.39 168.56 364.35 163.74 357.11C159.53 350.79 151.37 349.6 146.38 351.87V351.88Z" fill="#ADD3E4"/>
<path d="M206.35 172.06C207.88 177.04 213.15 181.92 218.29 180.65C223.62 179.32 226.43 171.95 224.5 166.42C222.49 160.64 215.26 156.72 210.34 159.2C206.04 161.37 205 167.65 206.36 172.06H206.35Z" fill="#ADD3E4"/>
<path opacity="0.8" d="M120.91 392.39C126.58 381.88 127.48 371.21 127.86 365.91C130.45 330.02 106.18 285.68 74.18 281.43C59.68 279.5 49.05 283.19 43.94 296.54C36.09 317.06 51.74 333.59 45.96 358.33C41.62 376.91 23.97 385.32 16.09 392.76" stroke="#ADD3E4" stroke-width="2" stroke-miterlimit="10"/>
<path d="M253.28 214.15C231.71 215.13 209.35 221.28 192.76 232.97C186.05 237.7 170.31 250.36 165.32 270.78C153.57 318.85 212.23 365.77 229.99 393.31" stroke="#ADD3E4" stroke-width="2" stroke-miterlimit="10"/>
<path opacity="0.9" d="M109.28 -2.75977C112.65 13.3902 120.18 29.0602 109.8 44.7402C91.72 72.0502 48.81 54.7802 26.53 84.2102C10.98 104.75 14.83 135.69 26.37 155.96C46.21 190.83 96.16 207.09 126.4 193.6C173.73 172.49 159.02 84.6802 206.98 71.8502C216.17 69.3902 217.53 72.3902 244.08 68.9202C246.82 68.5602 249.45 68.2202 251.98 67.8802" stroke="#ADD3E4" stroke-width="2" stroke-miterlimit="10"/>
<path opacity="0.6" d="M63.9599 288.83C49.9499 288.75 40.0199 293.58 35.9999 307C29.8299 327.63 45.8999 341.57 41.9999 366C39.8099 379.7 30.1399 388.86 22.4399 396H112.56C120.66 383.1 120.89 369.44 120.91 363.28C121.03 328.56 94.8799 289 63.9499 288.82L63.9599 288.83Z" fill="#ADD3E4"/>
<path opacity="0.7" d="M256 169.59C227.42 168.22 197.83 172.65 174.8 184.2C164.89 189.17 141.48 202.83 132.21 228.16C110.31 288.03 187.57 357.93 208.95 396H256.01V169.59H256Z" fill="#ADD3E4"/>
<path opacity="0.4" d="M216.12 76.9499C207.66 79.2099 201.15 83.8199 195.91 89.9699C199.13 92.3599 202.59 93.8299 206 93.9999C215.3 94.4699 219.62 91.1199 226 93.9999C232.45 96.9199 230.74 101.71 237 105C241.6 107.41 249.74 105.1 256 99.9499V73.6499C255.09 73.7699 254.16 73.8899 253.22 74.0099C226.67 77.4899 225.3 74.4899 216.12 76.9399V76.9499Z" fill="#ADD3E4"/>
<path opacity="0.3" d="M118.94 49.83C106.56 68.51 82.57 66.33 61.51 72.52C61.83 72.83 62.16 73.15 62.5 73.5C92.5 103.5 86.07 150.44 85.5 155.5C84.35 165.74 78.32 178.58 69.86 192.86C91.59 204.09 117.19 206.88 135.54 198.69C174.52 181.31 171.43 118.69 195.91 89.96C187.74 83.9 181.14 71.88 181 59.99C180.81 43.87 192.52 33.11 197 28.99C215.06 12.4 245.6 6.96 255 17.99C255.4 18.46 255.73 18.93 256 19.4V-5H117.26C119.12 13.76 130.89 31.8 118.94 49.83Z" fill="#ADD3E4"/>
<path opacity="0.4" d="M197 28.9998C192.52 33.1198 180.81 43.8798 181 59.9998C181.14 71.8998 187.74 83.9098 195.91 89.9698C201.16 83.8198 207.66 79.2098 216.12 76.9498C225.31 74.4898 226.67 77.4898 253.22 74.0198C254.16 73.8998 255.08 73.7798 256 73.6598V19.4098C255.73 18.9398 255.4 18.4798 255 17.9998C245.6 6.96977 215.06 12.4098 197 28.9998Z" fill="#ADD3E4"/>
<path opacity="0.3" d="M197 28.9998C192.52 33.1198 180.81 43.8798 181 59.9998C181.14 71.8998 187.74 83.9098 195.91 89.9698C201.16 83.8198 207.66 79.2098 216.12 76.9498C225.31 74.4898 226.67 77.4898 253.22 74.0198C254.16 73.8998 255.08 73.7798 256 73.6598V19.4098C255.73 18.9398 255.4 18.4798 255 17.9998C245.6 6.96977 215.06 12.4098 197 28.9998Z" fill="#ADD3E4"/>
<path opacity="0.4" d="M18 350C26.39 316.11 -4.86 304.37 34 247C46.73 228.2 59.96 209.55 69.86 192.86C55.78 185.58 43.31 174.76 35.51 161.05C23.98 140.78 20.12 109.84 35.67 89.3C42.7 80.01 51.79 75.37 61.51 72.52C55.78 66.92 53.62 65.96 47.5 59.5C29.97 41.01 23.65 17 21.99 -5H-6V388.75C1.96 382.66 12.81 370.95 18 350Z" fill="#ADD3E4"/>
<path opacity="0.3" d="M62.4999 73.5C62.1599 73.16 61.8299 72.84 61.5099 72.52C51.7899 75.37 42.6999 80.01 35.6699 89.3C20.1199 109.84 23.9699 140.78 35.5099 161.05C43.3099 174.76 55.7799 185.58 69.8599 192.86C78.3299 178.58 84.3499 165.74 85.4999 155.5C86.0699 150.44 92.4999 103.5 62.4999 73.5Z" fill="#ADD3E4"/>
<path opacity="0.4" d="M62.4999 73.5C62.1599 73.16 61.8299 72.84 61.5099 72.52C51.7899 75.37 42.6999 80.01 35.6699 89.3C20.1199 109.84 23.9699 140.78 35.5099 161.05C43.3099 174.76 55.7799 185.58 69.8599 192.86C78.3299 178.58 84.3499 165.74 85.4999 155.5C86.0699 150.44 92.4999 103.5 62.4999 73.5Z" fill="#ADD3E4"/>
<path d="M68 35C78.63 36.2 88.77 24.52 89 13C89.14 6.25 85.88 -0.55 81.1 -5H58.71C54.74 -0.76 52.31 5.46 52 11C51.42 21.23 57.75 33.85 68 35Z" fill="#ADD3E4"/>
</g>
<defs>
<clipPath id="clip0_202_4486">
<rect width="248" height="390" fill="white"/>
</clipPath>
</defs>
</svg>
