<svg width="248" height="390" viewBox="0 0 248 390" fill="none" xmlns="http://www.w3.org/2000/svg">
<g clip-path="url(#clip0_202_4509)">
<path d="M256 -5H-6V396H256V-5Z" fill="#F5F5F5"/>
<path opacity="0.9" d="M131.07 393.07C154.51 371.66 169.29 344.31 179.08 315.42C185.74 295.76 182.31 266.22 179.42 258.21C174.91 245.74 160.21 233.89 150.73 242.43C143.59 248.87 148.5 262.9 142.68 275.53C132.41 297.81 94.45 302.15 85.66 290.64C79.1 282.05 89.34 261.71 95.57 251.68C102.34 240.8 108.3 228.75 110.05 216.95C112.27 201.94 107.17 186.38 92.96 186.8C83.05 187.1 76.56 197.44 67.46 212.4C46.11 247.49 39.33 259.7 26.72 263.98C12.97 268.65 -0.600048 259.21 -2.59005 240.36C-4.55005 221.82 15.24 206.96 32.22 194.21C65.65 169.11 89.76 163.52 91.3 149.14C92.57 137.26 78.44 127.42 64.71 126.07C52.08 124.83 36.1 124.67 20.19 129.72C12.58 132.13 4.82995 136.22 -2.27005 140.72L-2.71005 393.06H131.07V393.07Z" stroke="#CEC8ED" stroke-width="2" stroke-miterlimit="10"/>
<path opacity="0.8" d="M252.26 369.82C248.9 369.07 245.62 371.43 241.23 369.17C236.96 366.98 234.92 362.34 233.88 358.4C232.17 351.95 231.98 345.95 231.3 340.47C230.5 334.02 228.62 328.46 223.82 325.7C220.49 323.78 216.18 323.68 212.79 325.05C208.95 326.6 207.12 329.7 202.28 340.4C195.52 355.33 194.06 360.41 189.19 368.84C189.19 368.84 186.21 374.01 182.52 379.06C178.23 384.93 173.06 389.46 167.76 393.06H252.26V369.81V369.82Z" stroke="#CEC8ED" stroke-width="2" stroke-miterlimit="10"/>
<path opacity="0.7" d="M189 313C195.9 294.03 192.81 265.67 190 258C185.63 246.05 171.04 234.8 161.45 243.1C154.22 249.35 158.98 262.8 153 275C142.46 296.51 104.39 301.04 95.72 290.07C89.24 281.87 99.74 262.23 106.1 252.53C113 242.01 119.11 230.36 121 219.01C123.4 204.56 118.47 189.65 104.23 190.19C94.3 190.57 87.68 200.58 78.4 215.04C56.62 248.97 49.68 260.77 37 265.01C23.17 269.63 9.69 260.68 7.92 242.58C6.17 224.77 26.16 210.31 43.31 197.89C77.08 173.45 101.29 167.85 103 154.01C104.41 142.58 90.37 133.26 76.63 132.09C64 131.01 48 131.01 32 136.01C18.53 140.22 4.56 149.42 -5.5 157.01V396.51H129.52C159.4 374.69 177.45 344.78 189 313.01V313Z" fill="#CEC8ED"/>
<path opacity="0.5" d="M251.55 264.9C245.64 258.2 247.12 244.97 246.69 227.76C246.26 210.65 239.53 182.3 220.25 172.95C205.38 165.74 194.44 171.45 188.97 163.63C182.95 155.03 194.81 144.74 188.41 134.6C183.14 126.26 167.4 137.53 160.77 127.2C153.8 116.34 163.35 95.3798 153.52 81.1598C140.71 62.6398 101.07 65.5998 93.59 66.1598C64.4601 68.3398 46.15 78.2398 35.16 70.2198C34.18 69.4998 33.35 68.6998 32.64 67.8598C22.48 78.0298 15.46 87.1798 12.79 92.8598C9.56005 99.7298 10.21 108.21 17 112.98C28.34 120.96 46.1901 109.59 75.1901 105.9C82.6401 104.95 122.1 99.9298 135.73 118.94C146.19 133.53 137.59 156.19 145.04 167.37C152.12 177.99 167.35 165.3 172.98 173.89C179.83 184.33 168.44 195.8 174.84 204.62C180.66 212.64 191.33 206.07 206.51 213C226.19 221.98 234.19 251.71 235.38 269.81C236.58 288.03 235.69 302.1 241.9 308.93C245.47 312.86 250.5 313.47 255.5 312.66V267.82C254.04 267.15 252.71 266.19 251.55 264.88V264.9Z" fill="#CEC8ED"/>
<path opacity="0.6" d="M105.34 -5.5C67.84 11.76 38.4 39.27 31.82 51.09C28.83 56.47 28.61 63.06 32.65 67.87C50.81 49.69 79.02 28.23 110.59 17.43C145.98 5.32 218.14 9.87 243.77 15.57C247.9 16.49 251.81 17.55 255.5 18.72V-5.5H105.34Z" fill="#CEC8ED"/>
<path opacity="0.5" d="M110.58 17.4401C79.01 28.2401 50.8 49.6901 32.64 67.8801C33.35 68.7301 34.18 69.5201 35.16 70.2401C46.15 78.2601 64.47 68.3601 93.59 66.1801C101.07 65.6201 140.71 62.6601 153.52 81.1801C163.35 95.4001 153.8 116.35 160.77 127.22C167.4 137.55 183.14 126.27 188.41 134.62C194.81 144.76 182.95 155.05 188.97 163.65C194.44 171.47 205.38 165.76 220.25 172.97C239.53 182.31 246.26 210.67 246.69 227.78C247.12 244.99 245.64 258.21 251.55 264.92C252.7 266.23 254.04 267.18 255.5 267.86V18.7201C251.8 17.5501 247.9 16.4901 243.77 15.5701C218.13 9.87013 145.98 5.33013 110.59 17.4301L110.58 17.4401Z" fill="#CEC8ED"/>
<path opacity="0.6" d="M110.58 17.4401C79.01 28.2401 50.8 49.6901 32.64 67.8801C33.35 68.7301 34.18 69.5201 35.16 70.2401C46.15 78.2601 64.47 68.3601 93.59 66.1801C101.07 65.6201 140.71 62.6601 153.52 81.1801C163.35 95.4001 153.8 116.35 160.77 127.22C167.4 137.55 183.14 126.27 188.41 134.62C194.81 144.76 182.95 155.05 188.97 163.65C194.44 171.47 205.38 165.76 220.25 172.97C239.53 182.31 246.26 210.67 246.69 227.78C247.12 244.99 245.64 258.21 251.55 264.92C252.7 266.23 254.04 267.18 255.5 267.86V18.7201C251.8 17.5501 247.9 16.4901 243.77 15.5701C218.13 9.87013 145.98 5.33013 110.59 17.4301L110.58 17.4401Z" fill="#CEC8ED"/>
<path opacity="0.6" d="M68.74 -5.5H-5.5V78.68C-4.45 74.59 -3.12 70.37 -1.43 66.04C14.59 25.11 48 11.99 68.74 -5.5Z" fill="#CEC8ED"/>
<path d="M252.78 190.88C239.71 188.61 230.35 192 224.66 185.63C217.08 177.13 230.14 165.72 222.02 155.65C215.34 147.37 197.85 160.04 189.46 149.8C180.63 139.02 190.27 116.74 177.89 102.68C161.76 84.3698 115.99 89.9998 107.35 91.0598C73.7199 95.1998 49.9999 104 39.8499 99.0498C31.6099 95.0398 31 86.2498 34.65 79.4798C43.06 63.8798 90.17 21.3698 147.1 4.01979C173.07 -3.89021 216.33 -5.53021 252.12 -4.38021L252.78 190.88Z" stroke="#CEC8ED" stroke-width="2" stroke-miterlimit="10"/>
</g>
<defs>
<clipPath id="clip0_202_4509">
<rect width="248" height="390" fill="white"/>
</clipPath>
</defs>
</svg>
