<svg width="78" height="14" viewBox="0 0 78 14" fill="none" xmlns="http://www.w3.org/2000/svg">
<path d="M11.1501 4.5H9.65297C9.56442 4.06937 9.40948 3.69105 9.18812 3.36506C8.97079 3.03906 8.70517 2.76539 8.39125 2.54403C8.08135 2.31866 7.73725 2.14962 7.35893 2.03693C6.98062 1.92424 6.5862 1.8679 6.17569 1.8679C5.42711 1.8679 4.74896 2.05705 4.14125 2.43537C3.53755 2.81368 3.05661 3.37109 2.69842 4.1076C2.34425 4.84411 2.16717 5.74763 2.16717 6.81818C2.16717 7.88873 2.34425 8.79226 2.69842 9.52876C3.05661 10.2653 3.53755 10.8227 4.14125 11.201C4.74896 11.5793 5.42711 11.7685 6.17569 11.7685C6.5862 11.7685 6.98062 11.7121 7.35893 11.5994C7.73725 11.4867 8.08135 11.3197 8.39125 11.0984C8.70517 10.873 8.97079 10.5973 9.18812 10.2713C9.40948 9.94129 9.56442 9.56297 9.65297 9.13636H11.1501C11.0374 9.76823 10.8322 10.3337 10.5344 10.8327C10.2365 11.3318 9.86627 11.7564 9.42356 12.1065C8.98085 12.4527 8.48381 12.7163 7.93244 12.8974C7.38509 13.0785 6.79951 13.169 6.17569 13.169C5.12124 13.169 4.18351 12.9115 3.36248 12.3963C2.54146 11.8812 1.89551 11.1487 1.42463 10.1989C0.953747 9.24905 0.718306 8.12216 0.718306 6.81818C0.718306 5.5142 0.953747 4.38731 1.42463 3.4375C1.89551 2.48769 2.54146 1.75521 3.36248 1.24006C4.18351 0.724905 5.12124 0.467329 6.17569 0.467329C6.79951 0.467329 7.38509 0.557883 7.93244 0.738991C8.48381 0.920099 8.98085 1.18572 9.42356 1.53587C9.86627 1.88198 10.2365 2.30457 10.5344 2.80362C10.8322 3.29865 11.0374 3.86411 11.1501 4.5ZM17.801 7.42188V13H16.3762V0.636363H17.801V5.17614H17.9217C18.139 4.69721 18.465 4.31688 18.8997 4.03516C19.3384 3.74941 19.9219 3.60653 20.6504 3.60653C21.2823 3.60653 21.8356 3.73331 22.3105 3.98686C22.7855 4.23639 23.1537 4.62074 23.4153 5.13991C23.6809 5.65507 23.8137 6.31108 23.8137 7.10795V13H22.389V7.20455C22.389 6.46804 22.1979 5.89856 21.8155 5.49609C21.4372 5.08961 20.912 4.88636 20.2399 4.88636C19.773 4.88636 19.3545 4.98497 18.9842 5.18217C18.618 5.37938 18.3282 5.66714 18.1149 6.04545C17.9056 6.42377 17.801 6.88258 17.801 7.42188ZM33.308 13.1932C32.4145 13.1932 31.6438 12.996 30.9958 12.6016C30.3519 12.2031 29.8548 11.6477 29.5047 10.9354C29.1586 10.219 28.9855 9.38589 28.9855 8.43608C28.9855 7.48627 29.1586 6.64915 29.5047 5.92472C29.8548 5.19626 30.3418 4.62879 30.9656 4.2223C31.5935 3.81179 32.326 3.60653 33.1631 3.60653C33.646 3.60653 34.123 3.68703 34.5938 3.84801C35.0647 4.009 35.4933 4.2706 35.8797 4.63281C36.2661 4.991 36.574 5.46591 36.8034 6.05753C37.0328 6.64915 37.1475 7.3776 37.1475 8.2429V8.84659H29.9997V7.61506H35.6986C35.6986 7.09186 35.594 6.625 35.3847 6.21449C35.1794 5.80398 34.8856 5.47999 34.5033 5.24254C34.125 5.00509 33.6782 4.88636 33.1631 4.88636C32.5956 4.88636 32.1046 5.02723 31.6901 5.30895C31.2796 5.58665 30.9636 5.94886 30.7423 6.3956C30.5209 6.84233 30.4102 7.32126 30.4102 7.83239V8.65341C30.4102 9.35369 30.531 9.94732 30.7725 10.4343C31.018 10.9173 31.358 11.2855 31.7927 11.5391C32.2274 11.7886 32.7325 11.9134 33.308 11.9134C33.6823 11.9134 34.0203 11.861 34.3222 11.7564C34.628 11.6477 34.8917 11.4867 35.113 11.2734C35.3344 11.0561 35.5054 10.7865 35.6262 10.4645L37.0026 10.8509C36.8577 11.3177 36.6142 11.7282 36.2721 12.0824C35.93 12.4325 35.5074 12.7062 35.0044 12.9034C34.5013 13.0966 33.9358 13.1932 33.308 13.1932ZM42.3147 13V3.72727H43.6911V5.12784H43.7877C43.9568 4.66903 44.2626 4.29676 44.7053 4.01101C45.1481 3.72526 45.6471 3.58239 46.2025 3.58239C46.3071 3.58239 46.4379 3.5844 46.5949 3.58842C46.7519 3.59245 46.8706 3.59848 46.9511 3.60653V5.0554C46.9028 5.04332 46.7921 5.02521 46.6191 5.00106C46.45 4.97289 46.2709 4.95881 46.0818 4.95881C45.631 4.95881 45.2285 5.05339 44.8744 5.24254C44.5242 5.42767 44.2465 5.68525 44.0413 6.01527C43.8401 6.34126 43.7394 6.71354 43.7394 7.1321V13H42.3147ZM51.6399 13V3.72727H53.0646V13H51.6399ZM52.3643 2.18182C52.0866 2.18182 51.8472 2.08724 51.646 1.89808C51.4487 1.70893 51.3501 1.48153 51.3501 1.21591C51.3501 0.950284 51.4487 0.722893 51.646 0.533735C51.8472 0.344578 52.0866 0.25 52.3643 0.25C52.642 0.25 52.8795 0.344578 53.0767 0.533735C53.2779 0.722893 53.3786 0.950284 53.3786 1.21591C53.3786 1.48153 53.2779 1.70893 53.0767 1.89808C52.8795 2.08724 52.642 2.18182 52.3643 2.18182ZM65.2423 5.80398L63.9624 6.16619C63.882 5.95289 63.7632 5.74562 63.6063 5.54439C63.4533 5.33913 63.2441 5.1701 62.9784 5.03729C62.7128 4.90447 62.3727 4.83807 61.9582 4.83807C61.3907 4.83807 60.9178 4.96887 60.5395 5.23047C60.1652 5.48804 59.9781 5.81605 59.9781 6.21449C59.9781 6.56865 60.1069 6.84837 60.3644 7.05362C60.622 7.25888 61.0245 7.42992 61.5718 7.56676L62.9482 7.90483C63.7773 8.10606 64.3951 8.41394 64.8016 8.82848C65.2081 9.23899 65.4113 9.76823 65.4113 10.4162C65.4113 10.9474 65.2584 11.4223 64.9525 11.8409C64.6507 12.2595 64.2281 12.5895 63.6847 12.831C63.1414 13.0724 62.5096 13.1932 61.7892 13.1932C60.8434 13.1932 60.0606 12.9879 59.4408 12.5774C58.821 12.1669 58.4286 11.5672 58.2636 10.7784L59.6159 10.4403C59.7446 10.9394 59.9881 11.3137 60.3463 11.5632C60.7085 11.8127 61.1814 11.9375 61.765 11.9375C62.4291 11.9375 62.9563 11.7966 63.3467 11.5149C63.7411 11.2292 63.9383 10.8871 63.9383 10.4886C63.9383 10.1667 63.8256 9.89702 63.6002 9.67969C63.3749 9.45833 63.0287 9.29332 62.5619 9.18466L61.0164 8.82244C60.1672 8.62121 59.5434 8.3093 59.145 7.88672C58.7506 7.46011 58.5534 6.92685 58.5534 6.28693C58.5534 5.76373 58.7003 5.3009 58.9941 4.89844C59.2919 4.49598 59.6963 4.18004 60.2075 3.95064C60.7226 3.72124 61.3062 3.60653 61.9582 3.60653C62.8758 3.60653 63.5962 3.80776 64.1194 4.21023C64.6466 4.61269 65.0209 5.14394 65.2423 5.80398ZM71.9806 7.42188V13H70.5559V0.636363H71.9806V5.17614H72.1014C72.3187 4.69721 72.6447 4.31688 73.0794 4.03516C73.5181 3.74941 74.1016 3.60653 74.8301 3.60653C75.4619 3.60653 76.0153 3.73331 76.4902 3.98686C76.9651 4.23639 77.3334 4.62074 77.595 5.13991C77.8606 5.65507 77.9934 6.31108 77.9934 7.10795V13H76.5687V7.20455C76.5687 6.46804 76.3775 5.89856 75.9952 5.49609C75.6169 5.08961 75.0917 4.88636 74.4196 4.88636C73.9527 4.88636 73.5342 4.98497 73.1639 5.18217C72.7976 5.37938 72.5079 5.66714 72.2946 6.04545C72.0853 6.42377 71.9806 6.88258 71.9806 7.42188Z" fill="black"/>
</svg>
