<svg width="248" height="390" viewBox="0 0 248 390" fill="none" xmlns="http://www.w3.org/2000/svg">
<g clip-path="url(#clip0_202_4460)">
<path d="M256 -5H-6V396H256V-5Z" fill="#F5F5F5"/>
<path opacity="0.7" d="M37 367C30.24 363.73 26.62 364.52 20 363C8.31 360.31 0.46 353.46 -5.5 346.61V396.5H58.9C58.93 396.33 58.98 396.17 59 396C60.56 386.23 48.88 372.74 37 367Z" fill="#A2C691"/>
<path opacity="0.1" d="M56 256C65.06 238.83 73.47 222.84 91 217C121 207 136.09 192.16 143 176C150.39 158.74 155.89 131.89 124 100C118 94 102.5 78.57 100 63C96.54 41.43 104.84 13.37 114.85 -5.5H65.58C56.79 25.76 37.98 71.65 -4 105C-4.5 105.4 -5 105.79 -5.5 106.19V157.29C7.29 145.43 25.26 141.6 35.94 140.59C43.9 139.84 53.87 143.91 58.64 149.96C64.5 157.4 62.86 170.47 57.26 178.76C53.05 184.99 48.6 187.27 44.41 190.45C37.77 195.5 30.09 204.12 24.47 219.96C21.91 227.16 15.22 231.86 7.74 231.42C4.47 231.23 1.02 230.47 -2.36 228.76C-3.46 228.2 -4.5 227.56 -5.5 226.85V303.36C6.32 303.33 19.95 300.99 30 292C39.89 283.15 46.45 274.11 56 256Z" fill="#A2C691"/>
<path opacity="0.2" d="M65.58 -5.5H-5.5V106.19C-5 105.8 -4.5 105.4 -4 105C37.98 71.65 56.79 25.76 65.58 -5.5Z" fill="#A2C691"/>
<path opacity="0.1" d="M65.58 -5.5H-5.5V106.19C-5 105.8 -4.5 105.4 -4 105C37.98 71.65 56.79 25.76 65.58 -5.5Z" fill="#A2C691"/>
<path opacity="0.5" d="M7.74 231.42C15.23 231.86 21.92 227.16 24.47 219.96C30.1 204.12 37.77 195.5 44.41 190.45C48.59 187.27 53.05 184.99 57.26 178.76C62.86 170.47 64.5 157.4 58.64 149.96C53.87 143.91 43.9 139.83 35.94 140.59C25.26 141.6 7.29 145.44 -5.5 157.29V226.85C-4.5 227.56 -3.46 228.2 -2.36 228.76C1.02 230.47 4.47 231.23 7.74 231.42Z" fill="#A2C691"/>
<path opacity="0.1" d="M7.74 231.42C15.23 231.86 21.92 227.16 24.47 219.96C30.1 204.12 37.77 195.5 44.41 190.45C48.59 187.27 53.05 184.99 57.26 178.76C62.86 170.47 64.5 157.4 58.64 149.96C53.87 143.91 43.9 139.83 35.94 140.59C25.26 141.6 7.29 145.44 -5.5 157.29V226.85C-4.5 227.56 -3.46 228.2 -2.36 228.76C1.02 230.47 4.47 231.23 7.74 231.42Z" fill="#A2C691"/>
<path opacity="0.3" d="M197.75 103.1C192.09 96.74 183.41 86.97 176.33 73.44C173.22 67.5 150.11 23.32 164.61 -5.5H134.72C123.01 24.15 114.22 56.53 133 80C137 85 141.87 91.81 149 100C179.26 134.75 184.58 197.83 155 226C140.64 239.68 130.56 242.67 102 256C87 263 71.63 276.44 64 296C61.31 302.91 54.58 320.15 62 335C70.23 351.47 87.78 348.85 95 366C100.53 379.13 92.74 386.61 98 395C98.32 395.52 98.69 396.01 99.09 396.5H165.86C193.48 377.42 187.41 340.51 224 315C237 305.94 246.14 304.76 255.5 302.57V257.55C242.82 268.4 234.1 260.07 214.3 269.26C170.46 289.61 175.92 347.86 145.28 353.11C128.3 356.02 107 341.5 102.55 325.07C99.78 314.84 104.05 305.52 105.63 302.19C117.77 276.62 147.01 282.82 168.91 255.11C178.43 243.07 182.59 229.65 184.4 223.8C191.19 201.87 186.03 193.62 194.55 178.23C196.89 174 205.67 158.15 222.7 154.53C238.16 151.24 251.13 160.02 252.43 160.93C253.5 161.68 254.51 162.51 255.5 163.37V116.58C250.38 120.67 245.24 123.13 240.52 123.43C227.81 124.23 213.92 121.29 197.76 103.11L197.75 103.1Z" fill="#A2C691"/>
<path opacity="0.2" d="M242.68 -5.5C247.53 -0.0100002 251.67 6.25 253.94 10.14C254.45 11.02 254.98 11.96 255.5 12.95V-5.5H242.68Z" fill="#A2C691"/>
<path opacity="0.3" d="M242.68 -5.5C247.53 -0.0100002 251.67 6.25 253.94 10.14C254.45 11.02 254.98 11.96 255.5 12.95V-5.5H242.68Z" fill="#A2C691"/>
<path opacity="0.2" d="M236.98 44.22C216.99 35.11 213.96 15.92 213.45 11.31C212.89 6.26 213.28 -0.11 214.86 -5.5H164.61C150.11 23.32 173.22 67.5 176.33 73.44C183.41 86.97 192.09 96.74 197.75 103.1C213.91 121.28 227.81 124.22 240.51 123.42C245.24 123.12 250.37 120.66 255.49 116.57V48.6C248.61 49.51 239.44 45.34 236.97 44.22H236.98Z" fill="#A2C691"/>
<path opacity="0.3" d="M236.98 44.22C216.99 35.11 213.96 15.92 213.45 11.31C212.89 6.26 213.28 -0.11 214.86 -5.5H164.61C150.11 23.32 173.22 67.5 176.33 73.44C183.41 86.97 192.09 96.74 197.75 103.1C213.91 121.28 227.81 124.22 240.51 123.42C245.24 123.12 250.37 120.66 255.49 116.57V48.6C248.61 49.51 239.44 45.34 236.97 44.22H236.98Z" fill="#A2C691"/>
<path opacity="0.6" d="M242.68 -5.5H214.87C213.29 -0.11 212.9 6.26 213.46 11.31C213.97 15.92 217 35.11 236.99 44.22C239.45 45.34 248.63 49.51 255.51 48.6V12.95C254.98 11.96 254.46 11.02 253.95 10.14C251.68 6.25 247.54 -0.0100002 242.69 -5.5H242.68Z" fill="#A2C691"/>
<path opacity="0.2" d="M242.68 -5.5H214.87C213.29 -0.11 212.9 6.26 213.46 11.31C213.97 15.92 217 35.11 236.99 44.22C239.45 45.34 248.63 49.51 255.51 48.6V12.95C254.98 11.96 254.46 11.02 253.95 10.14C251.68 6.25 247.54 -0.0100002 242.69 -5.5H242.68Z" fill="#A2C691"/>
<path opacity="0.3" d="M242.68 -5.5H214.87C213.29 -0.11 212.9 6.26 213.46 11.31C213.97 15.92 217 35.11 236.99 44.22C239.45 45.34 248.63 49.51 255.51 48.6V12.95C254.98 11.96 254.46 11.02 253.95 10.14C251.68 6.25 247.54 -0.0100002 242.69 -5.5H242.68Z" fill="#A2C691"/>
<path opacity="0.5" d="M222.7 154.52C205.67 158.14 196.9 173.99 194.55 178.22C186.03 193.61 191.19 201.86 184.4 223.79C182.59 229.64 178.43 243.05 168.91 255.1C147.01 282.81 117.77 276.61 105.63 302.18C104.05 305.51 99.78 314.83 102.55 325.06C107 341.49 128.3 356.01 145.28 353.1C175.92 347.85 170.45 289.6 214.3 269.25C234.09 260.06 242.82 268.39 255.5 257.54V163.36C254.51 162.5 253.5 161.67 252.43 160.92C251.13 160.01 238.16 151.23 222.7 154.52Z" fill="#A2C691"/>
<path opacity="0.3" d="M222.7 154.52C205.67 158.14 196.9 173.99 194.55 178.22C186.03 193.61 191.19 201.86 184.4 223.79C182.59 229.64 178.43 243.05 168.91 255.1C147.01 282.81 117.77 276.61 105.63 302.18C104.05 305.51 99.78 314.83 102.55 325.06C107 341.49 128.3 356.01 145.28 353.1C175.92 347.85 170.45 289.6 214.3 269.25C234.09 260.06 242.82 268.39 255.5 257.54V163.36C254.51 162.5 253.5 161.67 252.43 160.92C251.13 160.01 238.16 151.23 222.7 154.52Z" fill="#A2C691"/>
<path opacity="0.5" d="M88.97 -2.41016C72.44 43.2498 78.29 68.7298 87.54 83.8298C100.76 105.41 121.74 107.1 128.45 132.53C134.08 153.9 128.78 183.67 109.98 193.71C97.35 200.46 97.23 198.29 85.55 204.15C51.74 221.1 57.08 256.46 31.32 270.42C21.6799 275.64 9.42995 276.92 -2.80005 274.82" stroke="#A2C691" stroke-width="2" stroke-miterlimit="10"/>
<path opacity="0.7" d="M250.01 141.45C249.67 139.85 234.63 132.53 218.64 136.5C201.03 140.87 192.64 156.96 190.4 161.25C182.26 176.86 188.05 184.78 182.03 206.78C180.42 212.65 176.74 226.1 167.39 238.45C145.87 266.87 115.02 262.09 103.6 287.94C102.11 291.31 98.11 300.72 101.51 310.71C106.96 326.75 129.93 340.11 147.52 336.45C179.27 329.83 170.7 272.49 215.49 250.34C231.81 242.27 241.16 245.82 250.85 241.54C251.4 241.3 254 160.01 250 141.46L250.01 141.45Z" stroke="#A2C691" stroke-width="2" stroke-miterlimit="10"/>
<path opacity="0.6" d="M250.85 314.37C237.51 319.71 225.91 327.03 216.5 342.5C209.01 354.82 204.8 370.61 197.5 382.5C195.17 386.3 191.98 389.72 187.46 392.98" stroke="#A2C691" stroke-width="2" stroke-miterlimit="10"/>
</g>
<defs>
<clipPath id="clip0_202_4460">
<rect width="248" height="390" fill="white"/>
</clipPath>
</defs>
</svg>
